<?xml version="1.0" encoding="UTF-8"?>
<!DOCTYPE svg PUBLIC "-//W3C//DTD SVG 1.1//EN" "http://www.w3.org/Graphics/SVG/1.1/DTD/svg11.dtd">
<svg xmlns="http://www.w3.org/2000/svg" style="background: transparent; background-color: transparent; color-scheme: light dark;" xmlns:xlink="http://www.w3.org/1999/xlink" version="1.1" width="1701px" height="1461px" viewBox="0 0 1701 1461"><defs/><g><g data-cell-id="0"><g data-cell-id="1"><g data-cell-id="bg"><g transform="translate(0.5,0.5)"><rect x="0" y="0" width="1700" height="1460" fill="#ffffff" stroke="none" pointer-events="all" style="fill: light-dark(rgb(255, 255, 255), rgb(18, 18, 18));"/></g></g><g data-cell-id="title"><g transform="translate(0.5,0.5)"><rect x="40" y="20" width="700" height="32" fill="none" stroke="none" pointer-events="all"/></g><g><g fill="#1E293B" font-family="Helvetica" font-weight="bold" text-anchor="start" font-size="24px" style="fill: light-dark(rgb(30, 41, 59), rgb(195, 204, 220));"><text x="42" y="50">RunLore — Architecture</text></g></g></g><g data-cell-id="subtitle"><g transform="translate(0.5,0.5)"><rect x="40" y="54" width="800" height="22" fill="none" stroke="none" pointer-events="all"/></g><g><g fill="#475569" font-family="Helvetica" text-anchor="start" font-size="14px" style="fill: light-dark(rgb(71, 85, 105), rgb(155, 167, 184));"><text x="42" y="74">React → Investigate → Learn · read-only data fan-out · learning-loop feedback</text></g></g></g><g data-cell-id="react"><g><rect x="40" y="100" width="600" height="400" rx="8" ry="8" fill="#e0e7ff" stroke="#6366f1" stroke-width="1.5" pointer-events="all" style="fill: light-dark(rgb(224, 231, 255), rgb(31, 38, 58)); stroke: light-dark(rgb(99, 102, 241), rgb(130, 133, 252));"/></g><g><g fill="#1E293B" font-family="Helvetica" font-weight="bold" text-anchor="middle" font-size="16px" style="fill: light-dark(rgb(30, 41, 59), rgb(195, 204, 220));"><text x="340" y="122">React — triggers &amp; intake</text></g></g></g><g data-cell-id="A1"><g><rect x="70" y="160" width="220" height="80" rx="5" ry="5" fill="#ffffff" stroke="#6366f1" stroke-width="1.5" pointer-events="all" style="fill: light-dark(rgb(255, 255, 255), rgb(18, 18, 18)); stroke: light-dark(rgb(99, 102, 241), rgb(130, 133, 252));"/></g><g><g fill="#1E293B" font-family="Helvetica" text-anchor="middle" font-size="14px" style="fill: light-dark(rgb(30, 41, 59), rgb(195, 204, 220));"><text x="180" y="206">Alertmanager webhook</text></g></g></g><g data-cell-id="A2"><g><rect x="330" y="160" width="290" height="80" rx="5" ry="5" fill="#ffffff" stroke="#6366f1" stroke-width="1.5" pointer-events="all" style="fill: light-dark(rgb(255, 255, 255), rgb(18, 18, 18)); stroke: light-dark(rgb(99, 102, 241), rgb(130, 133, 252));"/></g><g><g fill="#1E293B" font-family="Helvetica" text-anchor="middle" font-size="14px" style="fill: light-dark(rgb(30, 41, 59), rgb(195, 204, 220));"><text x="475" y="197.5">GitOps failure watch —</text><text x="475" y="214.5">Flux / Argo informer</text></g></g></g><g data-cell-id="A3"><g><rect x="190" y="280" width="290" height="80" rx="5" ry="5" fill="#ffffff" stroke="#6366f1" stroke-width="1.5" pointer-events="all" style="fill: light-dark(rgb(255, 255, 255), rgb(18, 18, 18)); stroke: light-dark(rgb(99, 102, 241), rgb(130, 133, 252));"/></g><g><g fill="#1E293B" font-family="Helvetica" text-anchor="middle" font-size="14px" style="fill: light-dark(rgb(30, 41, 59), rgb(195, 204, 220));"><text x="335" y="317.5">Trigger policy —</text><text x="335" y="334.5">prod · critical · namespace</text></g></g></g><g data-cell-id="A4"><g><rect x="190" y="400" width="290" height="60" rx="5" ry="5" fill="#ffffff" stroke="#6366f1" stroke-width="1.5" pointer-events="all" style="fill: light-dark(rgb(255, 255, 255), rgb(18, 18, 18)); stroke: light-dark(rgb(99, 102, 241), rgb(130, 133, 252));"/></g><g><g fill="#1E293B" font-family="Helvetica" text-anchor="middle" font-size="14px" style="fill: light-dark(rgb(30, 41, 59), rgb(195, 204, 220));"><text x="335" y="436">Coalesce · dedupe · rate-limit</text></g></g></g><g data-cell-id="notify"><g><rect x="1120" y="100" width="320" height="220" rx="8" ry="8" fill="#ede9fe" stroke="#7c3aed" stroke-width="1.5" pointer-events="all" style="fill: light-dark(rgb(237, 233, 254), rgb(37, 33, 51)); stroke: light-dark(rgb(124, 58, 237), rgb(197, 141, 255));"/></g><g><g fill="#1E293B" font-family="Helvetica" font-weight="bold" text-anchor="middle" font-size="16px" style="fill: light-dark(rgb(30, 41, 59), rgb(195, 204, 220));"><text x="1280" y="122">Notify</text></g></g></g><g data-cell-id="OUT"><g><rect x="1160" y="170" width="240" height="110" rx="5" ry="5" fill="#ffffff" stroke="#7c3aed" stroke-width="1.5" pointer-events="all" style="fill: light-dark(rgb(255, 255, 255), rgb(18, 18, 18)); stroke: light-dark(rgb(124, 58, 237), rgb(197, 141, 255));"/></g><g><g fill="#1E293B" font-family="Helvetica" text-anchor="middle" font-size="14px" style="fill: light-dark(rgb(30, 41, 59), rgb(195, 204, 220));"><text x="1280" y="222.5">Notifier — Slack / Matrix</text><text x="1280" y="239.5">root cause + confidence + evidence</text></g></g></g><g data-cell-id="invest"><g><rect x="40" y="560" width="1040" height="620" rx="8" ry="8" fill="#fef3c7" stroke="#f59e0b" stroke-width="1.5" pointer-events="all" style="fill: light-dark(rgb(254, 243, 199), rgb(39, 30, 0)); stroke: light-dark(rgb(245, 158, 11), rgb(162, 87, 0));"/></g><g><g fill="#1E293B" font-family="Helvetica" font-weight="bold" text-anchor="middle" font-size="16px" style="fill: light-dark(rgb(30, 41, 59), rgb(195, 204, 220));"><text x="560" y="582">Investigate — ReAct loop, read-only</text></g></g></g><g data-cell-id="B5"><g><rect x="330" y="630" width="200" height="80" rx="5" ry="5" fill="#ffffff" stroke="#f59e0b" stroke-width="1.5" pointer-events="all" style="fill: light-dark(rgb(255, 255, 255), rgb(18, 18, 18)); stroke: light-dark(rgb(245, 158, 11), rgb(162, 87, 0));"/></g><g><g fill="#1E293B" font-family="Helvetica" text-anchor="middle" font-size="14px" style="fill: light-dark(rgb(30, 41, 59), rgb(195, 204, 220));"><text x="430" y="667.5">Adversarial verify —</text><text x="430" y="684.5">can only lower confidence</text></g></g></g><g data-cell-id="B7"><g><rect x="650" y="630" width="200" height="80" rx="5" ry="5" fill="#ffffff" stroke="#f59e0b" stroke-width="1.5" pointer-events="all" style="fill: light-dark(rgb(255, 255, 255), rgb(18, 18, 18)); stroke: light-dark(rgb(245, 158, 11), rgb(162, 87, 0));"/></g><g><g fill="#1E293B" font-family="Helvetica" text-anchor="middle" font-size="14px" style="fill: light-dark(rgb(30, 41, 59), rgb(195, 204, 220));"><text x="750" y="667.5">Action gate — off / suggest /</text><text x="750" y="684.5">approve / auto · server-authoritative · audited</text></g></g></g><g data-cell-id="B0"><g><rect x="90" y="760" width="220" height="90" rx="5" ry="5" fill="#ffffff" stroke="#f59e0b" stroke-width="1.5" pointer-events="all" style="fill: light-dark(rgb(255, 255, 255), rgb(18, 18, 18)); stroke: light-dark(rgb(245, 158, 11), rgb(162, 87, 0));"/></g><g><g fill="#1E293B" font-family="Helvetica" text-anchor="middle" font-size="14px" style="fill: light-dark(rgb(30, 41, 59), rgb(195, 204, 220));"><text x="200" y="802.5">Queue — single serialized worker</text><text x="200" y="819.5">HA leader election</text></g></g></g><g data-cell-id="B1"><g><rect x="430" y="750" width="280" height="110" rx="5" ry="5" fill="#ffffff" stroke="#f59e0b" stroke-width="2" pointer-events="all" style="fill: light-dark(rgb(255, 255, 255), rgb(18, 18, 18)); stroke: light-dark(rgb(245, 158, 11), rgb(162, 87, 0));"/></g><g><g fill="#1E293B" font-family="Helvetica" font-weight="bold" text-anchor="middle" font-size="15px" style="fill: light-dark(rgb(30, 41, 59), rgb(195, 204, 220));"><text x="570" y="802.5">LoopInvestigator</text><text x="570" y="820.5">ReAct: reason → tool → observe</text></g></g></g><g data-cell-id="B2"><g><rect x="800" y="760" width="220" height="90" rx="5" ry="5" fill="#ffffff" stroke="#f59e0b" stroke-width="1.5" pointer-events="all" style="fill: light-dark(rgb(255, 255, 255), rgb(18, 18, 18)); stroke: light-dark(rgb(245, 158, 11), rgb(162, 87, 0));"/></g><g><g fill="#1E293B" font-family="Helvetica" text-anchor="middle" font-size="14px" style="fill: light-dark(rgb(30, 41, 59), rgb(195, 204, 220));"><text x="910" y="802.5">Model provider</text><text x="910" y="819.5">Anthropic / Gemini / OpenAI-compatible</text></g></g></g><g data-cell-id="B3"><g><rect x="410" y="920" width="320" height="90" rx="5" ry="5" fill="#ffffff" stroke="#f59e0b" stroke-width="1.5" pointer-events="all" style="fill: light-dark(rgb(255, 255, 255), rgb(18, 18, 18)); stroke: light-dark(rgb(245, 158, 11), rgb(162, 87, 0));"/></g><g><g fill="#1E293B" font-family="Helvetica" text-anchor="middle" font-size="14px" style="fill: light-dark(rgb(30, 41, 59), rgb(195, 204, 220));"><text x="570" y="962.5">Tools — what_changed · metrics · logs ·</text><text x="570" y="979.5">network · cloud · cluster · kb_search</text></g></g></g><g data-cell-id="B4"><g><rect x="250" y="1070" width="260" height="80" rx="5" ry="5" fill="#ffffff" stroke="#f59e0b" stroke-width="1.5" pointer-events="all" style="fill: light-dark(rgb(255, 255, 255), rgb(18, 18, 18)); stroke: light-dark(rgb(245, 158, 11), rgb(162, 87, 0));"/></g><g><g fill="#1E293B" font-family="Helvetica" text-anchor="middle" font-size="14px" style="fill: light-dark(rgb(30, 41, 59), rgb(195, 204, 220));"><text x="380" y="1107.5">what-changed spine —</text><text x="380" y="1124.5">GitOps → go-git rendered diff</text></g></g></g><g data-cell-id="B6"><g><rect x="600" y="1070" width="260" height="70" rx="5" ry="5" fill="#ffffff" stroke="#f59e0b" stroke-width="1.5" pointer-events="all" style="fill: light-dark(rgb(255, 255, 255), rgb(18, 18, 18)); stroke: light-dark(rgb(245, 158, 11), rgb(162, 87, 0));"/></g><g><g fill="#1E293B" font-family="Helvetica" text-anchor="middle" font-size="14px" style="fill: light-dark(rgb(30, 41, 59), rgb(195, 204, 220));"><text x="730" y="1111">Redaction — ingress + egress</text></g></g></g><g data-cell-id="learn"><g><rect x="1120" y="560" width="540" height="560" rx="8" ry="8" fill="#d1fae5" stroke="#059669" stroke-width="1.5" pointer-events="all" style="fill: light-dark(rgb(209, 250, 229), rgb(4, 39, 21)); stroke: light-dark(rgb(5, 150, 105), rgb(42, 167, 128));"/></g><g><g fill="#1E293B" font-family="Helvetica" font-weight="bold" text-anchor="middle" font-size="16px" style="fill: light-dark(rgb(30, 41, 59), rgb(195, 204, 220));"><text x="1390" y="582">Learn — open, portable catalog</text></g></g></g><g data-cell-id="C1"><g><rect x="1160" y="620" width="230" height="70" rx="5" ry="5" fill="#ffffff" stroke="#059669" stroke-width="1.5" pointer-events="all" style="fill: light-dark(rgb(255, 255, 255), rgb(18, 18, 18)); stroke: light-dark(rgb(5, 150, 105), rgb(42, 167, 128));"/></g><g><g fill="#1E293B" font-family="Helvetica" text-anchor="middle" font-size="14px" style="fill: light-dark(rgb(30, 41, 59), rgb(195, 204, 220));"><text x="1275" y="652.5">Curator —</text><text x="1275" y="669.5">drafts KB entry → GitHub PR</text></g></g></g><g data-cell-id="C2"><g><path d="M 1160 745 C 1160 736.72 1211.49 730 1275 730 C 1305.5 730 1334.75 731.58 1356.32 734.39 C 1377.88 737.21 1390 741.02 1390 745 L 1390 785 C 1390 793.28 1338.51 800 1275 800 C 1211.49 800 1160 793.28 1160 785 Z" fill="#ffffff" stroke="#059669" stroke-width="1.5" stroke-miterlimit="10" pointer-events="all" style="fill: light-dark(rgb(255, 255, 255), rgb(18, 18, 18)); stroke: light-dark(rgb(5, 150, 105), rgb(42, 167, 128));"/><path d="M 1390 745 C 1390 753.28 1338.51 760 1275 760 C 1211.49 760 1160 753.28 1160 745" fill="none" stroke="#059669" stroke-width="1.5" stroke-miterlimit="10" pointer-events="all" style="stroke: light-dark(rgb(5, 150, 105), rgb(42, 167, 128));"/></g><g><g fill="#1E293B" font-family="Helvetica" text-anchor="middle" font-size="14px" style="fill: light-dark(rgb(30, 41, 59), rgb(195, 204, 220));"><text x="1275" y="775">KB repo — Git · OKF-compatible</text><text x="1275" y="792">markdown · human-reviewed and merged</text></g></g></g><g data-cell-id="C3"><g><path d="M 1160 855 C 1160 846.72 1211.49 840 1275 840 C 1305.5 840 1334.75 841.58 1356.32 844.39 C 1377.88 847.21 1390 851.02 1390 855 L 1390 895 C 1390 903.28 1338.51 910 1275 910 C 1211.49 910 1160 903.28 1160 895 Z" fill="#ffffff" stroke="#059669" stroke-width="1.5" stroke-miterlimit="10" pointer-events="all" style="fill: light-dark(rgb(255, 255, 255), rgb(18, 18, 18)); stroke: light-dark(rgb(5, 150, 105), rgb(42, 167, 128));"/><path d="M 1390 855 C 1390 863.28 1338.51 870 1275 870 C 1211.49 870 1160 863.28 1160 855" fill="none" stroke="#059669" stroke-width="1.5" stroke-miterlimit="10" pointer-events="all" style="stroke: light-dark(rgb(5, 150, 105), rgb(42, 167, 128));"/></g><g><g fill="#1E293B" font-family="Helvetica" text-anchor="middle" font-size="14px" style="fill: light-dark(rgb(30, 41, 59), rgb(195, 204, 220));"><text x="1275" y="893.5">Catalog — bleve BM25 index</text></g></g></g><g data-cell-id="C4"><g><rect x="1160" y="950" width="230" height="70" rx="5" ry="5" fill="#ffffff" stroke="#059669" stroke-width="1.5" pointer-events="all" style="fill: light-dark(rgb(255, 255, 255), rgb(18, 18, 18)); stroke: light-dark(rgb(5, 150, 105), rgb(42, 167, 128));"/></g><g><g fill="#1E293B" font-family="Helvetica" text-anchor="middle" font-size="14px" style="fill: light-dark(rgb(30, 41, 59), rgb(195, 204, 220));"><text x="1275" y="991">Instant recall — catalog hit</text></g></g></g><g data-cell-id="C5"><g><rect x="1430" y="730" width="190" height="100" rx="5" ry="5" fill="#ffffff" stroke="#059669" stroke-width="1.5" pointer-events="all" style="fill: light-dark(rgb(255, 255, 255), rgb(18, 18, 18)); stroke: light-dark(rgb(5, 150, 105), rgb(42, 167, 128));"/></g><g><g fill="#1E293B" font-family="Helvetica" text-anchor="middle" font-size="14px" style="fill: light-dark(rgb(30, 41, 59), rgb(195, 204, 220));"><text x="1525" y="777.5">Outcome ledger —</text><text x="1525" y="794.5">+ Bayesian decay</text></g></g></g><g data-cell-id="data"><g><rect x="40" y="1240" width="1620" height="180" rx="8" ry="8" fill="#f1f5f9" stroke="#94a3b8" stroke-width="1.5" pointer-events="all" style="fill: light-dark(rgb(241, 245, 249), rgb(23, 27, 30)); stroke: light-dark(rgb(148, 163, 184), rgb(87, 100, 118));"/></g><g><g fill="#1E293B" font-family="Helvetica" font-weight="bold" text-anchor="middle" font-size="16px" style="fill: light-dark(rgb(30, 41, 59), rgb(195, 204, 220));"><text x="850" y="1262">Data sources — read-only</text></g></g></g><g data-cell-id="D1"><g><rect x="80" y="1310" width="290" height="80" rx="5" ry="5" fill="#ffffff" stroke="#94a3b8" stroke-width="1.5" pointer-events="all" style="fill: light-dark(rgb(255, 255, 255), rgb(18, 18, 18)); stroke: light-dark(rgb(148, 163, 184), rgb(87, 100, 118));"/></g><g><g fill="#1E293B" font-family="Helvetica" text-anchor="middle" font-size="14px" style="fill: light-dark(rgb(30, 41, 59), rgb(195, 204, 220));"><text x="225" y="1347.5">Kubernetes —</text><text x="225" y="1364.5">Flux / Argo CD</text></g></g></g><g data-cell-id="D2"><g><rect x="410" y="1310" width="290" height="80" rx="5" ry="5" fill="#ffffff" stroke="#94a3b8" stroke-width="1.5" pointer-events="all" style="fill: light-dark(rgb(255, 255, 255), rgb(18, 18, 18)); stroke: light-dark(rgb(148, 163, 184), rgb(87, 100, 118));"/></g><g><g fill="#1E293B" font-family="Helvetica" text-anchor="middle" font-size="14px" style="fill: light-dark(rgb(30, 41, 59), rgb(195, 204, 220));"><text x="555" y="1347.5">Metrics —</text><text x="555" y="1364.5">VictoriaMetrics / Prometheus</text></g></g></g><g data-cell-id="D3"><g><rect x="740" y="1310" width="290" height="70" rx="5" ry="5" fill="#ffffff" stroke="#94a3b8" stroke-width="1.5" pointer-events="all" style="fill: light-dark(rgb(255, 255, 255), rgb(18, 18, 18)); stroke: light-dark(rgb(148, 163, 184), rgb(87, 100, 118));"/></g><g><g fill="#1E293B" font-family="Helvetica" text-anchor="middle" font-size="14px" style="fill: light-dark(rgb(30, 41, 59), rgb(195, 204, 220));"><text x="885" y="1351">Logs — VictoriaLogs</text></g></g></g><g data-cell-id="D4"><g><rect x="1070" y="1310" width="290" height="80" rx="5" ry="5" fill="#ffffff" stroke="#94a3b8" stroke-width="1.5" pointer-events="all" style="fill: light-dark(rgb(255, 255, 255), rgb(18, 18, 18)); stroke: light-dark(rgb(148, 163, 184), rgb(87, 100, 118));"/></g><g><g fill="#1E293B" font-family="Helvetica" text-anchor="middle" font-size="14px" style="fill: light-dark(rgb(30, 41, 59), rgb(195, 204, 220));"><text x="1215" y="1347.5">Network —</text><text x="1215" y="1364.5">Hubble / AWS VPC / GCP Firewall</text></g></g></g><g data-cell-id="D5"><g><rect x="1400" y="1310" width="220" height="70" rx="5" ry="5" fill="#ffffff" stroke="#94a3b8" stroke-width="1.5" pointer-events="all" style="fill: light-dark(rgb(255, 255, 255), rgb(18, 18, 18)); stroke: light-dark(rgb(148, 163, 184), rgb(87, 100, 118));"/></g><g><g fill="#1E293B" font-family="Helvetica" text-anchor="middle" font-size="14px" style="fill: light-dark(rgb(30, 41, 59), rgb(195, 204, 220));"><text x="1510" y="1351">Cloud — AWS CloudTrail</text></g></g></g><g data-cell-id="e-A1-A3"><g><path d="M 136 240 L 136 250 Q 136 260 146 260 L 238 260 Q 248 260 248 265.41 L 248 270.82" fill="none" stroke="#475569" stroke-width="1.5" stroke-miterlimit="10" pointer-events="stroke" style="stroke: light-dark(rgb(71, 85, 105), rgb(155, 167, 184));"/><path d="M 248 278.32 L 244.25 270.82 L 251.75 270.82 Z" fill="#475569" stroke="#475569" stroke-width="1.5" stroke-miterlimit="10" pointer-events="all" style="fill: light-dark(rgb(71, 85, 105), rgb(155, 167, 184)); stroke: light-dark(rgb(71, 85, 105), rgb(155, 167, 184));"/></g></g><g data-cell-id="e-A2-A3"><g><path d="M 475 240 L 475 250 Q 475 260 465 260 L 432 260 Q 422 260 422 265.41 L 422 270.82" fill="none" stroke="#475569" stroke-width="1.5" stroke-miterlimit="10" pointer-events="stroke" style="stroke: light-dark(rgb(71, 85, 105), rgb(155, 167, 184));"/><path d="M 422 278.32 L 418.25 270.82 L 425.75 270.82 Z" fill="#475569" stroke="#475569" stroke-width="1.5" stroke-miterlimit="10" pointer-events="all" style="fill: light-dark(rgb(71, 85, 105), rgb(155, 167, 184)); stroke: light-dark(rgb(71, 85, 105), rgb(155, 167, 184));"/></g></g><g data-cell-id="e-A3-A4"><g><path d="M 335 360 L 335 390.82" fill="none" stroke="#475569" stroke-width="1.5" stroke-miterlimit="10" pointer-events="stroke" style="stroke: light-dark(rgb(71, 85, 105), rgb(155, 167, 184));"/><path d="M 335 398.32 L 331.25 390.82 L 338.75 390.82 Z" fill="#475569" stroke="#475569" stroke-width="1.5" stroke-miterlimit="10" pointer-events="all" style="fill: light-dark(rgb(71, 85, 105), rgb(155, 167, 184)); stroke: light-dark(rgb(71, 85, 105), rgb(155, 167, 184));"/></g></g><g data-cell-id="e-A4-B0"><g><path d="M 277 460 L 277 600 Q 277 610 267 610 L 188 610 Q 178 610 178 620 L 178 750.82" fill="none" stroke="#475569" stroke-width="1.5" stroke-miterlimit="10" pointer-events="stroke" style="stroke: light-dark(rgb(71, 85, 105), rgb(155, 167, 184));"/><path d="M 178 758.32 L 174.25 750.82 L 181.75 750.82 Z" fill="#475569" stroke="#475569" stroke-width="1.5" stroke-miterlimit="10" pointer-events="all" style="fill: light-dark(rgb(71, 85, 105), rgb(155, 167, 184)); stroke: light-dark(rgb(71, 85, 105), rgb(155, 167, 184));"/></g><g><g fill="#334155" font-family="Helvetica" text-anchor="middle" font-size="13px" style="fill: light-dark(rgb(51, 65, 85), rgb(172, 184, 201));"><rect fill="#ffffff" stroke="none" x="201" y="603" width="53" height="17" stroke-width="0" style="fill: light-dark(rgb(255, 255, 255), rgb(18, 18, 18));"/><text x="227" y="615.5">enqueue</text></g></g></g><g data-cell-id="e-B0-B1"><g><path d="M 310 805 L 360 805 Q 370 805 370 795 L 370 789 Q 370 783 380 783 L 420.82 783" fill="none" stroke="#475569" stroke-width="1.5" stroke-miterlimit="10" pointer-events="stroke" style="stroke: light-dark(rgb(71, 85, 105), rgb(155, 167, 184));"/><path d="M 428.32 783 L 420.82 786.75 L 420.82 779.25 Z" fill="#475569" stroke="#475569" stroke-width="1.5" stroke-miterlimit="10" pointer-events="all" style="fill: light-dark(rgb(71, 85, 105), rgb(155, 167, 184)); stroke: light-dark(rgb(71, 85, 105), rgb(155, 167, 184));"/></g></g><g data-cell-id="e-B1-B2"><g><path d="M 719.18 805 L 790.82 805" fill="none" stroke="#475569" stroke-width="1.5" stroke-miterlimit="10" pointer-events="stroke" style="stroke: light-dark(rgb(71, 85, 105), rgb(155, 167, 184));"/><path d="M 711.68 805 L 719.18 801.25 L 719.18 808.75 Z" fill="#475569" stroke="#475569" stroke-width="1.5" stroke-miterlimit="10" pointer-events="all" style="fill: light-dark(rgb(71, 85, 105), rgb(155, 167, 184)); stroke: light-dark(rgb(71, 85, 105), rgb(155, 167, 184));"/><path d="M 798.32 805 L 790.82 808.75 L 790.82 801.25 Z" fill="#475569" stroke="#475569" stroke-width="1.5" stroke-miterlimit="10" pointer-events="all" style="fill: light-dark(rgb(71, 85, 105), rgb(155, 167, 184)); stroke: light-dark(rgb(71, 85, 105), rgb(155, 167, 184));"/></g></g><g data-cell-id="e-B1-B3"><g><path d="M 570 860 L 570 910.82" fill="none" stroke="#475569" stroke-width="1.5" stroke-miterlimit="10" pointer-events="stroke" style="stroke: light-dark(rgb(71, 85, 105), rgb(155, 167, 184));"/><path d="M 570 918.32 L 566.25 910.82 L 573.75 910.82 Z" fill="#475569" stroke="#475569" stroke-width="1.5" stroke-miterlimit="10" pointer-events="all" style="fill: light-dark(rgb(71, 85, 105), rgb(155, 167, 184)); stroke: light-dark(rgb(71, 85, 105), rgb(155, 167, 184));"/></g></g><g data-cell-id="e-B3-B4"><g><path d="M 490 1010 L 490 1030 Q 490 1040 480 1040 L 390 1040 Q 380 1040 380 1050 L 380 1060.82" fill="none" stroke="#475569" stroke-width="1.5" stroke-miterlimit="10" pointer-events="stroke" style="stroke: light-dark(rgb(71, 85, 105), rgb(155, 167, 184));"/><path d="M 380 1068.32 L 376.25 1060.82 L 383.75 1060.82 Z" fill="#475569" stroke="#475569" stroke-width="1.5" stroke-miterlimit="10" pointer-events="all" style="fill: light-dark(rgb(71, 85, 105), rgb(155, 167, 184)); stroke: light-dark(rgb(71, 85, 105), rgb(155, 167, 184));"/></g></g><g data-cell-id="e-B3-B6"><g><path d="M 650 1010 L 650 1030 Q 650 1040 660 1040 L 720 1040 Q 730 1040 730 1050 L 730 1060.82" fill="none" stroke="#475569" stroke-width="1.5" stroke-miterlimit="10" pointer-events="stroke" style="stroke: light-dark(rgb(71, 85, 105), rgb(155, 167, 184));"/><path d="M 730 1068.32 L 726.25 1060.82 L 733.75 1060.82 Z" fill="#475569" stroke="#475569" stroke-width="1.5" stroke-miterlimit="10" pointer-events="all" style="fill: light-dark(rgb(71, 85, 105), rgb(155, 167, 184)); stroke: light-dark(rgb(71, 85, 105), rgb(155, 167, 184));"/></g></g><g data-cell-id="e-B1-B5"><g><path d="M 500 750 L 500 740 Q 500 730 490 730 L 480 730 Q 470 730 470 724.59 L 470 719.18" fill="none" stroke="#475569" stroke-width="1.5" stroke-miterlimit="10" pointer-events="stroke" style="stroke: light-dark(rgb(71, 85, 105), rgb(155, 167, 184));"/><path d="M 470 711.68 L 473.75 719.18 L 466.25 719.18 Z" fill="#475569" stroke="#475569" stroke-width="1.5" stroke-miterlimit="10" pointer-events="all" style="fill: light-dark(rgb(71, 85, 105), rgb(155, 167, 184)); stroke: light-dark(rgb(71, 85, 105), rgb(155, 167, 184));"/></g></g><g data-cell-id="e-B1-B7"><g><path d="M 640 750 L 640 740 Q 640 730 650 730 L 700 730 Q 710 730 710 724.59 L 710 719.18" fill="none" stroke="#475569" stroke-width="1.5" stroke-miterlimit="10" pointer-events="stroke" style="stroke: light-dark(rgb(71, 85, 105), rgb(155, 167, 184));"/><path d="M 710 711.68 L 713.75 719.18 L 706.25 719.18 Z" fill="#475569" stroke="#475569" stroke-width="1.5" stroke-miterlimit="10" pointer-events="all" style="fill: light-dark(rgb(71, 85, 105), rgb(155, 167, 184)); stroke: light-dark(rgb(71, 85, 105), rgb(155, 167, 184));"/></g></g><g data-cell-id="e-B3-DATA"><g><path d="M 570 1010 L 570 1115 Q 570 1125 572.3 1125 L 573.45 1125 Q 574.6 1125 574.6 1135 L 574.6 1230.82" fill="none" stroke="#475569" stroke-width="1.5" stroke-miterlimit="10" pointer-events="stroke" style="stroke: light-dark(rgb(71, 85, 105), rgb(155, 167, 184));"/><path d="M 574.6 1238.32 L 570.85 1230.82 L 578.35 1230.82 Z" fill="#475569" stroke="#475569" stroke-width="1.5" stroke-miterlimit="10" pointer-events="all" style="fill: light-dark(rgb(71, 85, 105), rgb(155, 167, 184)); stroke: light-dark(rgb(71, 85, 105), rgb(155, 167, 184));"/></g><g><g fill="#334155" font-family="Helvetica" text-anchor="middle" font-size="13px" style="fill: light-dark(rgb(51, 65, 85), rgb(172, 184, 201));"><rect fill="#ffffff" stroke="none" x="522" y="1118" width="102" height="17" stroke-width="0" style="fill: light-dark(rgb(255, 255, 255), rgb(18, 18, 18));"/><text x="572" y="1130.5">read-only queries</text></g></g></g><g data-cell-id="e-B4-D1"><g><path d="M 354 1150 L 354 1220 Q 354 1230 344 1230 L 235 1230 Q 225 1230 225 1240 L 225 1300.82" fill="none" stroke="#475569" stroke-width="1.5" stroke-miterlimit="10" pointer-events="stroke" style="stroke: light-dark(rgb(71, 85, 105), rgb(155, 167, 184));"/><path d="M 225 1308.32 L 221.25 1300.82 L 228.75 1300.82 Z" fill="#475569" stroke="#475569" stroke-width="1.5" stroke-miterlimit="10" pointer-events="all" style="fill: light-dark(rgb(71, 85, 105), rgb(155, 167, 184)); stroke: light-dark(rgb(71, 85, 105), rgb(155, 167, 184));"/></g><g><g fill="#334155" font-family="Helvetica" text-anchor="middle" font-size="13px" style="fill: light-dark(rgb(51, 65, 85), rgb(172, 184, 201));"><rect fill="#ffffff" stroke="none" x="226" y="1223" width="128" height="17" stroke-width="0" style="fill: light-dark(rgb(255, 255, 255), rgb(18, 18, 18));"/><text x="289" y="1235.5">rendered-manifest diff</text></g></g></g><g data-cell-id="e-B1-OUT"><g><path d="M 558.8 750 L 558.8 515 Q 558.8 505 568.8 505 L 1270 505 Q 1280 505 1280 495 L 1280 289.18" fill="none" stroke="#475569" stroke-width="1.5" stroke-miterlimit="10" pointer-events="stroke" style="stroke: light-dark(rgb(71, 85, 105), rgb(155, 167, 184));"/><path d="M 1280 281.68 L 1283.75 289.18 L 1276.25 289.18 Z" fill="#475569" stroke="#475569" stroke-width="1.5" stroke-miterlimit="10" pointer-events="all" style="fill: light-dark(rgb(71, 85, 105), rgb(155, 167, 184)); stroke: light-dark(rgb(71, 85, 105), rgb(155, 167, 184));"/></g><g><g fill="#334155" font-family="Helvetica" text-anchor="middle" font-size="13px" style="fill: light-dark(rgb(51, 65, 85), rgb(172, 184, 201));"><rect fill="#ffffff" stroke="none" x="887" y="498" width="47" height="17" stroke-width="0" style="fill: light-dark(rgb(255, 255, 255), rgb(18, 18, 18));"/><text x="909.8" y="510.5">findings</text></g></g></g><g data-cell-id="e-B1-C1"><g><path d="M 584 750 L 584 555 Q 584 545 594 545 L 1130 545 Q 1140 545 1140 555 L 1140 638 Q 1140 648 1145.41 648 L 1150.82 648" fill="none" stroke="#475569" stroke-width="1.5" stroke-miterlimit="10" pointer-events="stroke" style="stroke: light-dark(rgb(71, 85, 105), rgb(155, 167, 184));"/><path d="M 1158.32 648 L 1150.82 651.75 L 1150.82 644.25 Z" fill="#475569" stroke="#475569" stroke-width="1.5" stroke-miterlimit="10" pointer-events="all" style="fill: light-dark(rgb(71, 85, 105), rgb(155, 167, 184)); stroke: light-dark(rgb(71, 85, 105), rgb(155, 167, 184));"/></g><g><g fill="#334155" font-family="Helvetica" text-anchor="middle" font-size="13px" style="fill: light-dark(rgb(51, 65, 85), rgb(172, 184, 201));"><rect fill="#ffffff" stroke="none" x="803" y="538" width="38" height="17" stroke-width="0" style="fill: light-dark(rgb(255, 255, 255), rgb(18, 18, 18));"/><text x="821" y="550.5">curate</text></g></g></g><g data-cell-id="e-B1-C5"><g><path d="M 626 750 L 626 535 Q 626 525 636 525 L 1515 525 Q 1525 525 1525 535 L 1525 720.82" fill="none" stroke="#475569" stroke-width="1.5" stroke-miterlimit="10" stroke-dasharray="4.5 4.5" pointer-events="stroke" style="stroke: light-dark(rgb(71, 85, 105), rgb(155, 167, 184));"/><path d="M 1525 728.32 L 1521.25 720.82 L 1528.75 720.82 Z" fill="#475569" stroke="#475569" stroke-width="1.5" stroke-miterlimit="10" pointer-events="all" style="fill: light-dark(rgb(71, 85, 105), rgb(155, 167, 184)); stroke: light-dark(rgb(71, 85, 105), rgb(155, 167, 184));"/></g><g><g fill="#334155" font-family="Helvetica" text-anchor="middle" font-size="13px" style="fill: light-dark(rgb(51, 65, 85), rgb(172, 184, 201));"><rect fill="#ffffff" stroke="none" x="1041" y="518" width="52" height="17" stroke-width="0" style="fill: light-dark(rgb(255, 255, 255), rgb(18, 18, 18));"/><text x="1066" y="530.5">outcome</text></g></g></g><g data-cell-id="e-C4-B1"><g><path d="M 1160 985 L 1070 985 Q 1060 985 1060 975 L 1060 900 Q 1060 890 1050 890 L 692 890 Q 682 890 682 880 L 682 869.18" fill="none" stroke="#475569" stroke-width="1.5" stroke-miterlimit="10" stroke-dasharray="4.5 4.5" pointer-events="stroke" style="stroke: light-dark(rgb(71, 85, 105), rgb(155, 167, 184));"/><path d="M 682 861.68 L 685.75 869.18 L 678.25 869.18 Z" fill="#475569" stroke="#475569" stroke-width="1.5" stroke-miterlimit="10" pointer-events="all" style="fill: light-dark(rgb(71, 85, 105), rgb(155, 167, 184)); stroke: light-dark(rgb(71, 85, 105), rgb(155, 167, 184));"/></g><g><g fill="#334155" font-family="Helvetica" text-anchor="middle" font-size="13px" style="fill: light-dark(rgb(51, 65, 85), rgb(172, 184, 201));"><rect fill="#ffffff" stroke="none" x="916" y="883" width="75" height="17" stroke-width="0" style="fill: light-dark(rgb(255, 255, 255), rgb(18, 18, 18));"/><text x="953" y="895.5">instant recall</text></g></g></g><g data-cell-id="e-C1-C2"><g><path d="M 1275 690 L 1275 720.82" fill="none" stroke="#475569" stroke-width="1.5" stroke-miterlimit="10" pointer-events="stroke" style="stroke: light-dark(rgb(71, 85, 105), rgb(155, 167, 184));"/><path d="M 1275 728.32 L 1271.25 720.82 L 1278.75 720.82 Z" fill="#475569" stroke="#475569" stroke-width="1.5" stroke-miterlimit="10" pointer-events="all" style="fill: light-dark(rgb(71, 85, 105), rgb(155, 167, 184)); stroke: light-dark(rgb(71, 85, 105), rgb(155, 167, 184));"/></g></g><g data-cell-id="e-C2-C3"><g><path d="M 1275 800 L 1275 830.82" fill="none" stroke="#475569" stroke-width="1.5" stroke-miterlimit="10" pointer-events="stroke" style="stroke: light-dark(rgb(71, 85, 105), rgb(155, 167, 184));"/><path d="M 1275 838.32 L 1271.25 830.82 L 1278.75 830.82 Z" fill="#475569" stroke="#475569" stroke-width="1.5" stroke-miterlimit="10" pointer-events="all" style="fill: light-dark(rgb(71, 85, 105), rgb(155, 167, 184)); stroke: light-dark(rgb(71, 85, 105), rgb(155, 167, 184));"/></g></g><g data-cell-id="e-C3-C4"><g><path d="M 1275 910 L 1275 940.82" fill="none" stroke="#475569" stroke-width="1.5" stroke-miterlimit="10" pointer-events="stroke" style="stroke: light-dark(rgb(71, 85, 105), rgb(155, 167, 184));"/><path d="M 1275 948.32 L 1271.25 940.82 L 1278.75 940.82 Z" fill="#475569" stroke="#475569" stroke-width="1.5" stroke-miterlimit="10" pointer-events="all" style="fill: light-dark(rgb(71, 85, 105), rgb(155, 167, 184)); stroke: light-dark(rgb(71, 85, 105), rgb(155, 167, 184));"/></g></g><g data-cell-id="e-C5-C3"><g><path d="M 1487 830 L 1487 865 Q 1487 875 1477 875 L 1399.18 875" fill="none" stroke="#475569" stroke-width="1.5" stroke-miterlimit="10" stroke-dasharray="4.5 4.5" pointer-events="stroke" style="stroke: light-dark(rgb(71, 85, 105), rgb(155, 167, 184));"/><path d="M 1391.68 875 L 1399.18 871.25 L 1399.18 878.75 Z" fill="#475569" stroke="#475569" stroke-width="1.5" stroke-miterlimit="10" pointer-events="all" style="fill: light-dark(rgb(71, 85, 105), rgb(155, 167, 184)); stroke: light-dark(rgb(71, 85, 105), rgb(155, 167, 184));"/></g><g><g fill="#334155" font-family="Helvetica" text-anchor="middle" font-size="13px" style="fill: light-dark(rgb(51, 65, 85), rgb(172, 184, 201));"><rect fill="#ffffff" stroke="none" x="1402" y="868" width="119" height="17" stroke-width="0" style="fill: light-dark(rgb(255, 255, 255), rgb(18, 18, 18));"/><text x="1461" y="880.5">decay weights recall</text></g></g></g></g></g></g></svg>